<?xml version="1.0" encoding="utf-8"?>
<!-- Generator: Adobe Illustrator 27.2.0, SVG Export Plug-In . SVG Version: 6.00 Build 0)  -->
<svg version="1.1" id="Слой_1" xmlns="http://www.w3.org/2000/svg" xmlns:xlink="http://www.w3.org/1999/xlink" x="0px" y="0px"
	 viewBox="0 0 300 300" style="enable-background:new 0 0 300 300;" xml:space="preserve">
<style type="text/css">
	.st0{fill:#FFFF00;}
	.st1{fill:#754C24;}
	.st2{fill:#006837;}
	.st3{font-family:'Georgia';}
	.st4{font-size:21.0198px;}
</style>
<g>
	<path class="st0" d="M150.5,257.5c-52.93,0-96-43.07-96-96s43.07-96,96-96h10c52.93,0,96,43.07,96,96s-43.07,96-96,96H150.5z"/>
	<path d="M160.5,66c52.66,0,95.5,42.84,95.5,95.5c0,52.66-42.84,95.5-95.5,95.5h-10C97.84,257,55,214.16,55,161.5
		C55,108.84,97.84,66,150.5,66H160.5 M160.5,65h-10C97.2,65,54,108.2,54,161.5v0c0,53.3,43.2,96.5,96.5,96.5h10
		c53.3,0,96.5-43.2,96.5-96.5v0C257,108.2,213.8,65,160.5,65L160.5,65z"/>
</g>
<path d="M157.53,86.02"/>
<path class="st1" d="M202.19,202.58H114.9c5.18-3.46,13.66-10.11,20.3-21.02c4.96-8.16,7.11-15.78,8.12-21.02
	c10.15,0,20.3,0,30.45,0c-0.34,4.1-0.38,12.23,4.06,21.02C185.03,195.8,198.71,201.3,202.19,202.58z"/>
<path class="st2" d="M222.49,160.54H92.57c7.92-0.96,25.74-4.18,42.63-17.2c12.36-9.53,19.01-20.28,22.33-26.75
	c3.99,6.72,11.48,17.31,24.36,26.75C197.86,155.05,213.97,159.03,222.49,160.54z"/>
<path class="st2" d="M212.34,129.97H104.75c7.89-0.58,23.6-2.84,38.57-13.38c6.33-4.46,10.94-9.28,14.21-13.38
	c4.52,3.76,9.91,7.7,16.24,11.47C188.09,123.2,201.86,127.59,212.34,129.97z"/>
<path class="st2" d="M198.13,105.13h-77.14c8.15-2.52,18.18-6.59,28.42-13.38c3.82-2.53,7.19-5.12,10.15-7.64
	c2.96,2.53,6.33,5.12,10.15,7.64C179.95,98.54,189.98,102.61,198.13,105.13z"/>
<path class="st2" d="M112.87,112.77"/>
<path class="st2" d="M123.02,84.11"/>
<path class="st2" d="M159.56,108.95"/>
<path class="st2" d="M159.56,122.33"/>
<path class="st2" d="M45,143"/>
<text transform="matrix(1.0623 0 0 1 100.6094 222.9922)" class="st3 st4">Твин Трее</text>
</svg>
